<mxfile host="app.diagrams.net" agent="Mozilla/5.0 (X11; Linux x86_64; rv:128.0) Gecko/20100101 Firefox/128.0" version="26.0.14">
  <diagram name="Page-1" id="n36We_7hir3YMjg6p6uC">
    <mxGraphModel dx="1138" dy="673" grid="1" gridSize="10" guides="1" tooltips="1" connect="1" arrows="1" fold="1" page="1" pageScale="1" pageWidth="850" pageHeight="1100" math="0" shadow="0">
      <root>
        <mxCell id="0" />
        <mxCell id="1" parent="0" />
        <mxCell id="0h0An3vFOW1mdWgkQzuL-55" value="" style="group" vertex="1" connectable="0" parent="1">
          <mxGeometry width="700" height="410" as="geometry" />
        </mxCell>
        <mxCell id="0h0An3vFOW1mdWgkQzuL-54" value="" style="rounded=0;whiteSpace=wrap;html=1;" vertex="1" parent="0h0An3vFOW1mdWgkQzuL-55">
          <mxGeometry width="700" height="410" as="geometry" />
        </mxCell>
        <mxCell id="0h0An3vFOW1mdWgkQzuL-1" value="Proyecto" style="rounded=0;whiteSpace=wrap;html=1;fillColor=#d5e8d4;strokeColor=#82b366;" vertex="1" parent="0h0An3vFOW1mdWgkQzuL-55">
          <mxGeometry x="90" y="300" width="120" height="60" as="geometry" />
        </mxCell>
        <mxCell id="0h0An3vFOW1mdWgkQzuL-2" value="Miembro" style="rounded=0;whiteSpace=wrap;html=1;fillColor=#d5e8d4;strokeColor=#82b366;" vertex="1" parent="0h0An3vFOW1mdWgkQzuL-55">
          <mxGeometry x="490" y="300" width="120" height="60" as="geometry" />
        </mxCell>
        <mxCell id="0h0An3vFOW1mdWgkQzuL-5" style="edgeStyle=orthogonalEdgeStyle;rounded=0;orthogonalLoop=1;jettySize=auto;html=1;exitX=0;exitY=0.5;exitDx=0;exitDy=0;entryX=1;entryY=0.5;entryDx=0;entryDy=0;" edge="1" parent="0h0An3vFOW1mdWgkQzuL-55" source="0h0An3vFOW1mdWgkQzuL-4" target="0h0An3vFOW1mdWgkQzuL-1">
          <mxGeometry relative="1" as="geometry" />
        </mxCell>
        <mxCell id="0h0An3vFOW1mdWgkQzuL-6" style="edgeStyle=orthogonalEdgeStyle;rounded=0;orthogonalLoop=1;jettySize=auto;html=1;exitX=1;exitY=0.5;exitDx=0;exitDy=0;entryX=0;entryY=0.5;entryDx=0;entryDy=0;" edge="1" parent="0h0An3vFOW1mdWgkQzuL-55" source="0h0An3vFOW1mdWgkQzuL-4" target="0h0An3vFOW1mdWgkQzuL-2">
          <mxGeometry relative="1" as="geometry" />
        </mxCell>
        <mxCell id="0h0An3vFOW1mdWgkQzuL-4" value="&lt;div&gt;formar&lt;/div&gt;&lt;div&gt;parte&lt;br&gt;&lt;/div&gt;" style="rhombus;whiteSpace=wrap;html=1;fillColor=#fff2cc;strokeColor=#d6b656;" vertex="1" parent="0h0An3vFOW1mdWgkQzuL-55">
          <mxGeometry x="310" y="290" width="80" height="80" as="geometry" />
        </mxCell>
        <mxCell id="0h0An3vFOW1mdWgkQzuL-7" value="Proyectos" style="shape=table;startSize=30;container=1;collapsible=1;childLayout=tableLayout;fixedRows=1;rowLines=0;fontStyle=1;align=center;resizeLast=1;html=1;" vertex="1" parent="0h0An3vFOW1mdWgkQzuL-55">
          <mxGeometry x="40" y="40" width="180" height="120" as="geometry" />
        </mxCell>
        <mxCell id="0h0An3vFOW1mdWgkQzuL-8" value="" style="shape=tableRow;horizontal=0;startSize=0;swimlaneHead=0;swimlaneBody=0;fillColor=none;collapsible=0;dropTarget=0;points=[[0,0.5],[1,0.5]];portConstraint=eastwest;top=0;left=0;right=0;bottom=1;" vertex="1" parent="0h0An3vFOW1mdWgkQzuL-7">
          <mxGeometry y="30" width="180" height="30" as="geometry" />
        </mxCell>
        <mxCell id="0h0An3vFOW1mdWgkQzuL-9" value="PK" style="shape=partialRectangle;connectable=0;fillColor=none;top=0;left=0;bottom=0;right=0;fontStyle=1;overflow=hidden;whiteSpace=wrap;html=1;" vertex="1" parent="0h0An3vFOW1mdWgkQzuL-8">
          <mxGeometry width="30" height="30" as="geometry">
            <mxRectangle width="30" height="30" as="alternateBounds" />
          </mxGeometry>
        </mxCell>
        <mxCell id="0h0An3vFOW1mdWgkQzuL-10" value="id_proyecto" style="shape=partialRectangle;connectable=0;fillColor=none;top=0;left=0;bottom=0;right=0;align=left;spacingLeft=6;fontStyle=5;overflow=hidden;whiteSpace=wrap;html=1;" vertex="1" parent="0h0An3vFOW1mdWgkQzuL-8">
          <mxGeometry x="30" width="150" height="30" as="geometry">
            <mxRectangle width="150" height="30" as="alternateBounds" />
          </mxGeometry>
        </mxCell>
        <mxCell id="0h0An3vFOW1mdWgkQzuL-11" value="" style="shape=tableRow;horizontal=0;startSize=0;swimlaneHead=0;swimlaneBody=0;fillColor=none;collapsible=0;dropTarget=0;points=[[0,0.5],[1,0.5]];portConstraint=eastwest;top=0;left=0;right=0;bottom=0;" vertex="1" parent="0h0An3vFOW1mdWgkQzuL-7">
          <mxGeometry y="60" width="180" height="30" as="geometry" />
        </mxCell>
        <mxCell id="0h0An3vFOW1mdWgkQzuL-12" value="" style="shape=partialRectangle;connectable=0;fillColor=none;top=0;left=0;bottom=0;right=0;editable=1;overflow=hidden;whiteSpace=wrap;html=1;" vertex="1" parent="0h0An3vFOW1mdWgkQzuL-11">
          <mxGeometry width="30" height="30" as="geometry">
            <mxRectangle width="30" height="30" as="alternateBounds" />
          </mxGeometry>
        </mxCell>
        <mxCell id="0h0An3vFOW1mdWgkQzuL-13" value="nombre_proyecto" style="shape=partialRectangle;connectable=0;fillColor=none;top=0;left=0;bottom=0;right=0;align=left;spacingLeft=6;overflow=hidden;whiteSpace=wrap;html=1;" vertex="1" parent="0h0An3vFOW1mdWgkQzuL-11">
          <mxGeometry x="30" width="150" height="30" as="geometry">
            <mxRectangle width="150" height="30" as="alternateBounds" />
          </mxGeometry>
        </mxCell>
        <mxCell id="0h0An3vFOW1mdWgkQzuL-14" value="" style="shape=tableRow;horizontal=0;startSize=0;swimlaneHead=0;swimlaneBody=0;fillColor=none;collapsible=0;dropTarget=0;points=[[0,0.5],[1,0.5]];portConstraint=eastwest;top=0;left=0;right=0;bottom=0;" vertex="1" parent="0h0An3vFOW1mdWgkQzuL-7">
          <mxGeometry y="90" width="180" height="30" as="geometry" />
        </mxCell>
        <mxCell id="0h0An3vFOW1mdWgkQzuL-15" value="" style="shape=partialRectangle;connectable=0;fillColor=none;top=0;left=0;bottom=0;right=0;editable=1;overflow=hidden;whiteSpace=wrap;html=1;" vertex="1" parent="0h0An3vFOW1mdWgkQzuL-14">
          <mxGeometry width="30" height="30" as="geometry">
            <mxRectangle width="30" height="30" as="alternateBounds" />
          </mxGeometry>
        </mxCell>
        <mxCell id="0h0An3vFOW1mdWgkQzuL-16" value="presupuesto" style="shape=partialRectangle;connectable=0;fillColor=none;top=0;left=0;bottom=0;right=0;align=left;spacingLeft=6;overflow=hidden;whiteSpace=wrap;html=1;" vertex="1" parent="0h0An3vFOW1mdWgkQzuL-14">
          <mxGeometry x="30" width="150" height="30" as="geometry">
            <mxRectangle width="150" height="30" as="alternateBounds" />
          </mxGeometry>
        </mxCell>
        <mxCell id="0h0An3vFOW1mdWgkQzuL-20" value="Proyecto_Miembro" style="shape=table;startSize=30;container=1;collapsible=1;childLayout=tableLayout;fixedRows=1;rowLines=0;fontStyle=1;align=center;resizeLast=1;html=1;" vertex="1" parent="0h0An3vFOW1mdWgkQzuL-55">
          <mxGeometry x="260" y="40" width="180" height="90" as="geometry" />
        </mxCell>
        <mxCell id="0h0An3vFOW1mdWgkQzuL-21" value="" style="shape=tableRow;horizontal=0;startSize=0;swimlaneHead=0;swimlaneBody=0;fillColor=none;collapsible=0;dropTarget=0;points=[[0,0.5],[1,0.5]];portConstraint=eastwest;top=0;left=0;right=0;bottom=0;" vertex="1" parent="0h0An3vFOW1mdWgkQzuL-20">
          <mxGeometry y="30" width="180" height="30" as="geometry" />
        </mxCell>
        <mxCell id="0h0An3vFOW1mdWgkQzuL-22" value="PK,FK1" style="shape=partialRectangle;connectable=0;fillColor=none;top=0;left=0;bottom=0;right=0;fontStyle=1;overflow=hidden;whiteSpace=wrap;html=1;" vertex="1" parent="0h0An3vFOW1mdWgkQzuL-21">
          <mxGeometry width="50" height="30" as="geometry">
            <mxRectangle width="50" height="30" as="alternateBounds" />
          </mxGeometry>
        </mxCell>
        <mxCell id="0h0An3vFOW1mdWgkQzuL-23" value="id_proyecto" style="shape=partialRectangle;connectable=0;fillColor=none;top=0;left=0;bottom=0;right=0;align=left;spacingLeft=6;fontStyle=5;overflow=hidden;whiteSpace=wrap;html=1;" vertex="1" parent="0h0An3vFOW1mdWgkQzuL-21">
          <mxGeometry x="50" width="130" height="30" as="geometry">
            <mxRectangle width="130" height="30" as="alternateBounds" />
          </mxGeometry>
        </mxCell>
        <mxCell id="0h0An3vFOW1mdWgkQzuL-46" value="" style="shape=tableRow;horizontal=0;startSize=0;swimlaneHead=0;swimlaneBody=0;fillColor=none;collapsible=0;dropTarget=0;points=[[0,0.5],[1,0.5]];portConstraint=eastwest;top=0;left=0;right=0;bottom=0;" vertex="1" parent="0h0An3vFOW1mdWgkQzuL-20">
          <mxGeometry y="60" width="180" height="30" as="geometry" />
        </mxCell>
        <mxCell id="0h0An3vFOW1mdWgkQzuL-47" value="PK,FK2" style="shape=partialRectangle;connectable=0;fillColor=none;top=0;left=0;bottom=0;right=0;fontStyle=1;overflow=hidden;whiteSpace=wrap;html=1;" vertex="1" parent="0h0An3vFOW1mdWgkQzuL-46">
          <mxGeometry width="50" height="30" as="geometry">
            <mxRectangle width="50" height="30" as="alternateBounds" />
          </mxGeometry>
        </mxCell>
        <mxCell id="0h0An3vFOW1mdWgkQzuL-48" value="id_miembro" style="shape=partialRectangle;connectable=0;fillColor=none;top=0;left=0;bottom=0;right=0;align=left;spacingLeft=6;fontStyle=5;overflow=hidden;whiteSpace=wrap;html=1;" vertex="1" parent="0h0An3vFOW1mdWgkQzuL-46">
          <mxGeometry x="50" width="130" height="30" as="geometry">
            <mxRectangle width="130" height="30" as="alternateBounds" />
          </mxGeometry>
        </mxCell>
        <mxCell id="0h0An3vFOW1mdWgkQzuL-33" value="Miembros" style="shape=table;startSize=30;container=1;collapsible=1;childLayout=tableLayout;fixedRows=1;rowLines=0;fontStyle=1;align=center;resizeLast=1;html=1;" vertex="1" parent="0h0An3vFOW1mdWgkQzuL-55">
          <mxGeometry x="480" y="40" width="180" height="90" as="geometry" />
        </mxCell>
        <mxCell id="0h0An3vFOW1mdWgkQzuL-34" value="" style="shape=tableRow;horizontal=0;startSize=0;swimlaneHead=0;swimlaneBody=0;fillColor=none;collapsible=0;dropTarget=0;points=[[0,0.5],[1,0.5]];portConstraint=eastwest;top=0;left=0;right=0;bottom=1;" vertex="1" parent="0h0An3vFOW1mdWgkQzuL-33">
          <mxGeometry y="30" width="180" height="30" as="geometry" />
        </mxCell>
        <mxCell id="0h0An3vFOW1mdWgkQzuL-35" value="PK" style="shape=partialRectangle;connectable=0;fillColor=none;top=0;left=0;bottom=0;right=0;fontStyle=1;overflow=hidden;whiteSpace=wrap;html=1;" vertex="1" parent="0h0An3vFOW1mdWgkQzuL-34">
          <mxGeometry width="30" height="30" as="geometry">
            <mxRectangle width="30" height="30" as="alternateBounds" />
          </mxGeometry>
        </mxCell>
        <mxCell id="0h0An3vFOW1mdWgkQzuL-36" value="id_miembro" style="shape=partialRectangle;connectable=0;fillColor=none;top=0;left=0;bottom=0;right=0;align=left;spacingLeft=6;fontStyle=5;overflow=hidden;whiteSpace=wrap;html=1;" vertex="1" parent="0h0An3vFOW1mdWgkQzuL-34">
          <mxGeometry x="30" width="150" height="30" as="geometry">
            <mxRectangle width="150" height="30" as="alternateBounds" />
          </mxGeometry>
        </mxCell>
        <mxCell id="0h0An3vFOW1mdWgkQzuL-37" value="" style="shape=tableRow;horizontal=0;startSize=0;swimlaneHead=0;swimlaneBody=0;fillColor=none;collapsible=0;dropTarget=0;points=[[0,0.5],[1,0.5]];portConstraint=eastwest;top=0;left=0;right=0;bottom=0;" vertex="1" parent="0h0An3vFOW1mdWgkQzuL-33">
          <mxGeometry y="60" width="180" height="30" as="geometry" />
        </mxCell>
        <mxCell id="0h0An3vFOW1mdWgkQzuL-38" value="" style="shape=partialRectangle;connectable=0;fillColor=none;top=0;left=0;bottom=0;right=0;editable=1;overflow=hidden;whiteSpace=wrap;html=1;" vertex="1" parent="0h0An3vFOW1mdWgkQzuL-37">
          <mxGeometry width="30" height="30" as="geometry">
            <mxRectangle width="30" height="30" as="alternateBounds" />
          </mxGeometry>
        </mxCell>
        <mxCell id="0h0An3vFOW1mdWgkQzuL-39" value="nombre_miembro" style="shape=partialRectangle;connectable=0;fillColor=none;top=0;left=0;bottom=0;right=0;align=left;spacingLeft=6;overflow=hidden;whiteSpace=wrap;html=1;" vertex="1" parent="0h0An3vFOW1mdWgkQzuL-37">
          <mxGeometry x="30" width="150" height="30" as="geometry">
            <mxRectangle width="150" height="30" as="alternateBounds" />
          </mxGeometry>
        </mxCell>
        <mxCell id="0h0An3vFOW1mdWgkQzuL-49" style="edgeStyle=orthogonalEdgeStyle;rounded=0;orthogonalLoop=1;jettySize=auto;html=1;exitX=1;exitY=0.5;exitDx=0;exitDy=0;entryX=0;entryY=0.5;entryDx=0;entryDy=0;" edge="1" parent="0h0An3vFOW1mdWgkQzuL-55" source="0h0An3vFOW1mdWgkQzuL-8" target="0h0An3vFOW1mdWgkQzuL-21">
          <mxGeometry relative="1" as="geometry" />
        </mxCell>
        <mxCell id="0h0An3vFOW1mdWgkQzuL-50" style="edgeStyle=orthogonalEdgeStyle;rounded=0;orthogonalLoop=1;jettySize=auto;html=1;exitX=0;exitY=0.5;exitDx=0;exitDy=0;entryX=1;entryY=0.5;entryDx=0;entryDy=0;" edge="1" parent="0h0An3vFOW1mdWgkQzuL-55" source="0h0An3vFOW1mdWgkQzuL-34" target="0h0An3vFOW1mdWgkQzuL-46">
          <mxGeometry relative="1" as="geometry" />
        </mxCell>
        <mxCell id="0h0An3vFOW1mdWgkQzuL-51" value="(1:N)" style="text;html=1;align=center;verticalAlign=middle;resizable=0;points=[];autosize=1;strokeColor=none;fillColor=none;" vertex="1" parent="0h0An3vFOW1mdWgkQzuL-55">
          <mxGeometry x="440" y="300" width="50" height="30" as="geometry" />
        </mxCell>
        <mxCell id="0h0An3vFOW1mdWgkQzuL-52" value="(1:N)" style="text;html=1;align=center;verticalAlign=middle;resizable=0;points=[];autosize=1;strokeColor=none;fillColor=none;" vertex="1" parent="0h0An3vFOW1mdWgkQzuL-55">
          <mxGeometry x="210" y="300" width="50" height="30" as="geometry" />
        </mxCell>
        <mxCell id="0h0An3vFOW1mdWgkQzuL-53" value="N:M" style="text;html=1;align=center;verticalAlign=middle;resizable=0;points=[];autosize=1;strokeColor=none;fillColor=none;fontStyle=1" vertex="1" parent="0h0An3vFOW1mdWgkQzuL-55">
          <mxGeometry x="325" y="260" width="50" height="30" as="geometry" />
        </mxCell>
      </root>
    </mxGraphModel>
  </diagram>
</mxfile>
